# xmcd
#
# Track frame offsets: 
#        150
#        10712
#        20541
#        34272
#        45321
#        55828
#        64576
#        75007
#        86432
#        98127
#        110361
#        121289
#        132236
#        141377
#        151938
#        164832
#        176001
#        186216
#
# Disc length: 2638 seconds
#
# Revision: 2
# Processed by: cddbd v1.5.2PL0 Copyright (c) Steve Scherf et al.
# Submitted via: ExactAudioCopyFreeDBPlugin 1.0
#
DISCID=e00a4c12
DTITLE=Patsy Cline - Real Gone Music - Three Classic Albums plus Bonus
DTITLE=Singles - CD3-4
DYEAR=2013
DGENRE=Country
TTITLE0=Honky tonk merry-go-round  (1955)
TTITLE1=Turn the cards slowly  (1955)
TTITLE2=A church, a courtroom and goodbye  (1955)
TTITLE3=Hidin' out  (1955)
TTITLE4=Stop look and listen  (1956)
TTITLE5=Try again  (1956)
TTITLE6=I love you honey  (1956)
TTITLE7=I've loved and lost again  (1956)
TTITLE8=Today, tomorrow and forever  (1957)
TTITLE9=A poor man's roses (Or a rich man's gold) (1957)
TTITLE10=A stranger in my arms  (1957)
TTITLE11=Stop the world (And let me off)  (1958)
TTITLE12=Come on in (And make yourself at home)  (1958)
TTITLE13=I can see an angel  (1958)
TTITLE14=If I could see the world  (1958)
TTITLE15=Dear god  (1958)
TTITLE16=Walking dream  (1958)
TTITLE17=Let the teardrops fall  (1958)
EXTD=
EXTT0=
EXTT1=
EXTT2=
EXTT3=
EXTT4=
EXTT5=
EXTT6=
EXTT7=
EXTT8=
EXTT9=
EXTT10=
EXTT11=
EXTT12=
EXTT13=
EXTT14=
EXTT15=
EXTT16=
EXTT17=
PLAYORDER=
